<svg version="1.1" id="Layer_1" xmlns="http://www.w3.org/2000/svg" xmlns:xlink="http://www.w3.org/1999/xlink" x="0px" y="0px"
	 width="100%" viewBox="0 0 500 350" enable-background="new 0 0 500 350" xml:space="preserve">
<path fill="#F1EFE7" opacity="1.000000" stroke="none" 
	d="
M275.000000,351.000000 
	C183.333344,351.000000 92.166687,351.000000 1.000025,351.000000 
	C1.000016,234.333359 1.000016,117.666718 1.000008,1.000056 
	C167.666626,1.000037 334.333252,1.000037 500.999908,1.000019 
	C500.999939,117.666603 500.999939,234.333206 500.999969,350.999908 
	C425.833344,351.000000 350.666656,351.000000 275.000000,351.000000 
M161.406448,145.883896 
	C166.196869,145.883896 170.987289,145.883896 176.293259,145.883896 
	C176.293259,148.271942 176.275543,150.220184 176.295990,152.168030 
	C176.511063,172.654633 175.955368,193.188095 177.188919,213.613403 
	C178.241943,231.049118 184.745895,246.419540 201.349670,255.302979 
	C210.895157,260.410065 221.295349,261.504608 231.897049,260.916321 
	C243.794113,260.256104 255.210373,257.712402 265.534149,251.635559 
	C263.610413,244.433258 261.775726,237.564377 260.595581,230.958344 
	C261.344574,231.594025 262.171661,232.157928 262.831085,232.875854 
	C279.960693,251.525040 301.101379,261.172455 326.498199,260.975525 
	C355.975525,260.746979 381.941559,252.599991 400.219147,227.561295 
	C400.596802,227.043915 401.229492,226.712692 401.746948,227.319839 
	C401.766754,227.986069 401.774872,228.652863 401.808044,229.318420 
	C402.780640,248.822281 419.274536,262.763458 439.144409,260.878662 
	C457.549896,259.132751 471.470032,240.883820 468.419800,222.499344 
	C465.198090,203.081238 446.970123,190.393829 428.173950,194.629883 
	C414.078308,197.806564 406.006561,207.193161 401.318512,220.343979 
	C389.730957,214.589798 378.143402,208.835617 366.671173,203.138718 
	C363.290466,206.155197 360.327026,209.097137 357.064575,211.658218 
	C343.752472,222.108429 322.721375,222.646027 308.822662,213.043427 
	C300.419769,207.237854 297.337982,199.011108 297.344727,188.558197 
	C333.913116,188.558197 369.974426,188.558197 406.860931,188.558197 
	C406.542053,181.693130 406.539429,175.391891 405.903168,169.155273 
	C404.259155,153.040955 399.312378,138.061417 387.726532,126.313789 
	C362.906158,101.146904 332.711182,97.289886 300.018890,105.816551 
	C283.686157,110.076385 271.246277,120.690475 260.035706,132.021469 
	C260.035706,123.571304 260.035706,115.121132 260.035706,105.985443 
	C249.167175,105.985443 238.809082,105.985443 228.087326,105.985443 
	C228.087326,87.043083 228.087326,68.790176 228.087326,50.452408 
	C210.663956,50.452408 193.643997,50.452408 176.231689,50.452408 
	C176.231689,69.092308 176.231689,87.350746 176.231689,106.162392 
	C168.900269,106.162392 161.955978,106.162392 154.278870,105.916183 
	C123.755325,97.420776 95.548149,101.268394 70.788605,122.100723 
	C53.727127,136.456024 43.506691,154.588959 42.114471,177.172058 
	C39.876450,213.474930 62.742226,240.723022 90.716637,253.564056 
	C116.056831,265.195892 141.629440,262.497864 166.880829,252.669601 
	C176.432373,248.951981 176.365128,248.772552 171.870117,239.595032 
	C167.360535,230.387741 162.869019,221.171600 158.380356,211.981384 
	C135.355255,222.497375 118.732620,220.278961 105.600388,205.262848 
	C95.461876,193.669922 94.212700,175.005981 102.843781,161.427734 
	C107.040642,154.825348 112.578423,149.597321 120.030434,146.776764 
	C133.397736,141.717239 146.053757,144.419418 158.416214,151.015640 
	C159.250549,149.081009 159.902802,147.568604 161.406448,145.883896 
z"/>
<path fill="#02BF64" opacity="1.000000" stroke="none" 
	d="
M401.743164,226.294617 
	C401.229492,226.712692 400.596802,227.043915 400.219147,227.561295 
	C381.941559,252.599991 355.975525,260.746979 326.498199,260.975525 
	C301.101379,261.172455 279.960693,251.525040 262.831085,232.875854 
	C262.171661,232.157928 261.344574,231.594025 260.080780,230.558090 
	C256.043732,224.109680 252.521469,218.061539 248.985107,211.632706 
	C248.009705,208.424728 246.881989,205.641830 246.113983,202.762970 
	C240.887604,183.172012 242.863815,164.247864 251.758759,145.736023 
	C254.682449,141.311722 257.409058,137.132004 260.135712,132.952301 
	C271.246277,120.690475 283.686157,110.076385 300.018890,105.816551 
	C332.711182,97.289886 362.906158,101.146904 387.726532,126.313789 
	C399.312378,138.061417 404.259155,153.040955 405.903168,169.155273 
	C406.539429,175.391891 406.542053,181.693130 406.860931,188.558197 
	C369.974426,188.558197 333.913116,188.558197 297.344727,188.558197 
	C297.337982,199.011108 300.419769,207.237854 308.822662,213.043427 
	C322.721375,222.646027 343.752472,222.108429 357.064575,211.658218 
	C360.327026,209.097137 363.290466,206.155197 366.671173,203.138718 
	C378.143402,208.835617 389.730957,214.589798 401.706421,220.844269 
	C401.977295,222.994568 401.860229,224.644592 401.743164,226.294617 
M350.106964,145.462540 
	C341.266449,135.434555 325.432983,132.482407 312.698059,138.487640 
	C303.915588,142.629074 298.284546,151.650406 299.514160,159.639740 
	C318.179932,159.639740 336.847931,159.639740 356.721252,159.639740 
	C354.459503,154.647385 352.508636,150.341232 350.106964,145.462540 
z"/>
<path fill="#024BAD" opacity="1.000000" stroke="none" 
	d="
M248.999207,212.013382 
	C252.521469,218.061539 256.043732,224.109680 259.753510,230.426666 
	C261.775726,237.564377 263.610413,244.433258 265.534149,251.635559 
	C255.210373,257.712402 243.794113,260.256104 231.897049,260.916321 
	C221.295349,261.504608 210.895157,260.410065 201.349670,255.302979 
	C184.745895,246.419540 178.241943,231.049118 177.188919,213.613403 
	C175.955368,193.188095 176.511063,172.654633 176.295990,152.168030 
	C176.275543,150.220184 176.293259,148.271942 176.293259,145.883896 
	C170.987289,145.883896 166.196869,145.883896 160.502167,145.885132 
	C158.153625,145.784286 156.709381,145.682205 155.011703,145.562210 
	C155.011703,132.244385 155.011703,119.203392 155.011703,106.162392 
	C161.955978,106.162392 168.900269,106.162392 176.231689,106.162392 
	C176.231689,87.350746 176.231689,69.092308 176.231689,50.452408 
	C193.643997,50.452408 210.663956,50.452408 228.087326,50.452408 
	C228.087326,68.790176 228.087326,87.043083 228.087326,105.985443 
	C238.809082,105.985443 249.167175,105.985443 260.035706,105.985443 
	C260.035706,115.121132 260.035706,123.571304 260.085693,132.486877 
	C257.409058,137.132004 254.682449,141.311722 251.254211,145.675659 
	C243.269669,145.859879 235.986725,145.859879 228.507019,145.859879 
	C228.373489,147.151596 228.219330,147.948746 228.219299,148.745911 
	C228.218613,164.074875 228.083344,179.406494 228.348419,194.731110 
	C228.422058,198.988281 229.285599,203.348007 230.521469,207.438690 
	C231.980698,212.268661 235.707672,214.780243 240.868439,214.141739 
	C243.624283,213.800751 246.291809,212.745987 248.999207,212.013382 
z"/>
<path fill="#FF914E" opacity="1.000000" stroke="none" 
	d="
M154.645294,106.039291 
	C155.011703,119.203392 155.011703,132.244385 155.011703,145.562210 
	C156.709381,145.682205 158.153625,145.784286 160.076462,145.971283 
	C159.902802,147.568604 159.250549,149.081009 158.416214,151.015640 
	C146.053757,144.419418 133.397736,141.717239 120.030434,146.776764 
	C112.578423,149.597321 107.040642,154.825348 102.843781,161.427734 
	C94.212700,175.005981 95.461876,193.669922 105.600388,205.262848 
	C118.732620,220.278961 135.355255,222.497375 158.380356,211.981384 
	C162.869019,221.171600 167.360535,230.387741 171.870117,239.595032 
	C176.365128,248.772552 176.432373,248.951981 166.880829,252.669601 
	C141.629440,262.497864 116.056831,265.195892 90.716637,253.564056 
	C62.742226,240.723022 39.876450,213.474930 42.114471,177.172058 
	C43.506691,154.588959 53.727127,136.456024 70.788605,122.100723 
	C95.548149,101.268394 123.755325,97.420776 154.645294,106.039291 
z"/>
<path fill="#020202" opacity="1.000000" stroke="none" 
	d="
M401.745056,226.807220 
	C401.860229,224.644592 401.977295,222.994568 402.058899,220.982391 
	C406.006561,207.193161 414.078308,197.806564 428.173950,194.629883 
	C446.970123,190.393829 465.198090,203.081238 468.419800,222.499344 
	C471.470032,240.883820 457.549896,259.132751 439.144409,260.878662 
	C419.274536,262.763458 402.780640,248.822281 401.808044,229.318420 
	C401.774872,228.652863 401.766754,227.986069 401.745056,226.807220 
z"/>
<path fill="#EBECE5" opacity="1.000000" stroke="none" 
	d="
M248.985107,211.632706 
	C246.291809,212.745987 243.624283,213.800751 240.868439,214.141739 
	C235.707672,214.780243 231.980698,212.268661 230.521469,207.438690 
	C229.285599,203.348007 228.422058,198.988281 228.348419,194.731110 
	C228.083344,179.406494 228.218613,164.074875 228.219299,148.745911 
	C228.219330,147.948746 228.373489,147.151596 228.507019,145.859879 
	C235.986725,145.859879 243.269669,145.859879 251.057159,145.920227 
	C242.863815,164.247864 240.887604,183.172012 246.113983,202.762970 
	C246.881989,205.641830 248.009705,208.424728 248.985107,211.632706 
z"/>
<path fill="#EEEEE5" opacity="1.000000" stroke="none" 
	d="
M350.332367,145.748810 
	C352.508636,150.341232 354.459503,154.647385 356.721252,159.639740 
	C336.847931,159.639740 318.179932,159.639740 299.514160,159.639740 
	C298.284546,151.650406 303.915588,142.629074 312.698059,138.487640 
	C325.432983,132.482407 341.266449,135.434555 350.332367,145.748810 
z"/>
</svg>