<svg version="1.1" id="Layer_1" xmlns="http://www.w3.org/2000/svg" xmlns:xlink="http://www.w3.org/1999/xlink" x="0px" y="0px"
	 width="100%" viewBox="0 0 500 350" enable-background="new 0 0 500 350" xml:space="preserve">
<path fill="#FFFFFF" opacity="1.000000" stroke="none" 
	d="
M275.000000,351.000000 
	C183.333344,351.000000 92.166687,351.000000 1.000025,351.000000 
	C1.000016,234.333359 1.000016,117.666718 1.000008,1.000056 
	C167.666626,1.000037 334.333252,1.000037 500.999908,1.000019 
	C500.999939,117.666603 500.999939,234.333206 500.999969,350.999908 
	C425.833344,351.000000 350.666656,351.000000 275.000000,351.000000 
M161.416702,145.884094 
	C166.331238,145.884094 171.245789,145.884094 176.295532,145.884094 
	C176.295532,153.271332 176.230789,159.920792 176.308502,166.568573 
	C176.493088,182.358948 175.959793,198.209595 177.181274,213.922012 
	C178.518005,231.117188 184.771393,246.310181 201.092255,255.165924 
	C210.753296,260.407990 221.290787,261.525909 232.037186,260.908447 
	C243.900085,260.226807 255.304596,257.717255 265.524628,251.617599 
	C263.609406,244.417877 261.784912,237.559097 260.613556,230.961349 
	C261.359894,231.598862 262.179657,232.168503 262.841370,232.884262 
	C270.477386,241.143631 279.158752,248.021729 289.320038,252.934845 
	C306.739105,261.357178 325.137878,262.417572 343.907440,259.798981 
	C366.357361,256.666962 385.475464,247.394318 399.293274,228.747650 
	C399.968231,227.836807 400.936401,227.143234 401.748810,227.367981 
	C401.768860,228.034058 401.777283,228.700729 401.810608,229.366135 
	C402.786285,248.849594 419.303223,262.777039 439.175873,260.875580 
	C457.571564,259.115479 471.473267,240.863098 468.415253,222.485458 
	C465.184326,203.068970 446.957794,190.389267 428.176910,194.628998 
	C414.088531,197.809402 406.008514,207.176895 401.324799,220.346024 
	C389.744019,214.596039 378.163239,208.846069 365.835175,202.725052 
	C364.571930,204.288849 363.427307,205.951050 362.042786,207.380981 
	C351.090424,218.692734 337.500671,221.478424 322.591675,218.905273 
	C306.604858,216.146103 296.208344,203.458817 297.749481,188.724823 
	C333.750153,188.724823 369.806580,188.724823 405.981171,188.724823 
	C405.981171,181.979767 406.454346,175.679459 405.889282,169.473663 
	C404.405640,153.178940 399.355408,138.064743 387.630676,126.215393 
	C362.798615,101.119453 332.629669,97.280205 299.971863,105.833092 
	C283.660339,110.104973 271.236816,120.707657 260.035736,132.019577 
	C260.035736,123.564293 260.035736,115.109009 260.035736,105.985748 
	C249.168686,105.985748 238.803696,105.985748 228.089127,105.985748 
	C228.089127,87.049706 228.089127,68.784798 228.089127,50.445740 
	C210.670547,50.445740 193.638794,50.445740 176.232285,50.445740 
	C176.232285,69.091965 176.232285,87.362045 176.232285,106.163597 
	C168.911407,106.163597 161.961731,106.163597 154.281876,105.907631 
	C125.529793,97.931389 98.499931,100.721703 74.284225,119.312141 
	C55.272076,133.907791 43.438412,152.824554 42.173149,177.217300 
	C40.534370,208.810974 55.213905,232.108170 81.150665,248.358994 
	C109.773483,266.292786 139.726685,263.846252 169.690399,251.402542 
	C171.765274,250.540833 173.537903,248.951401 175.704605,247.534607 
	C172.677811,241.332458 169.833832,235.514130 166.998154,229.691772 
	C164.113098,223.768036 161.236221,217.840317 158.363434,211.930115 
	C135.609665,222.726898 117.684418,220.113480 104.941490,204.487778 
	C94.679619,191.904419 94.676109,171.936371 104.495514,158.892365 
	C114.174812,146.034454 132.619370,137.667358 158.405991,150.934814 
	C159.127930,149.307724 159.847916,147.685074 161.416702,145.884094 
z"/>
<path fill="#02BF64" opacity="1.000000" stroke="none" 
	d="
M401.768066,226.348511 
	C400.936401,227.143234 399.968231,227.836807 399.293274,228.747650 
	C385.475464,247.394318 366.357361,256.666962 343.907440,259.798981 
	C325.137878,262.417572 306.739105,261.357178 289.320038,252.934845 
	C279.158752,248.021729 270.477386,241.143631 262.841370,232.884262 
	C262.179657,232.168503 261.359894,231.598862 260.253174,230.497742 
	C256.261658,224.027008 252.630524,218.019882 248.987671,211.631790 
	C240.561844,189.114792 241.232376,167.364594 251.918015,145.721619 
	C254.771072,141.257187 257.452087,137.103592 260.133118,132.949997 
	C271.236816,120.707657 283.660339,110.104973 299.971863,105.833092 
	C332.629669,97.280205 362.798615,101.119453 387.630676,126.215393 
	C399.355408,138.064743 404.405640,153.178940 405.889282,169.473663 
	C406.454346,175.679459 405.981171,181.979767 405.981171,188.724823 
	C369.806580,188.724823 333.750153,188.724823 297.749481,188.724823 
	C296.208344,203.458817 306.604858,216.146103 322.591675,218.905273 
	C337.500671,221.478424 351.090424,218.692734 362.042786,207.380981 
	C363.427307,205.951050 364.571930,204.288849 365.835175,202.725052 
	C378.163239,208.846069 389.744019,214.596039 401.713501,220.844330 
	C401.990814,223.011276 401.879456,224.679886 401.768066,226.348511 
M328.500000,159.931992 
	C337.475677,159.931992 346.451324,159.931992 355.450378,159.931992 
	C354.116882,144.098389 342.358490,134.787537 325.189026,135.672333 
	C309.560333,136.477753 298.853271,146.250366 299.146576,159.931976 
	C308.586151,159.931976 318.043060,159.931976 328.500000,159.931992 
z"/>
<path fill="#024BAE" opacity="1.000000" stroke="none" 
	d="
M260.084412,132.484787 
	C257.452087,137.103592 254.771072,141.257187 251.474426,145.661774 
	C243.437958,145.912750 236.017120,145.912750 228.840439,145.912750 
	C228.840439,164.570267 228.785004,182.658859 228.910721,200.746201 
	C228.926422,203.003250 229.676010,205.337357 230.477219,207.489990 
	C232.242996,212.234085 235.736084,214.785141 240.882996,214.142761 
	C243.634216,213.799377 246.296783,212.745789 248.999374,212.012726 
	C252.630524,218.019882 256.261658,224.027008 259.926605,230.367218 
	C261.784912,237.559097 263.609406,244.417877 265.524628,251.617599 
	C255.304596,257.717255 243.900085,260.226807 232.037186,260.908447 
	C221.290787,261.525909 210.753296,260.407990 201.092255,255.165924 
	C184.771393,246.310181 178.518005,231.117188 177.181274,213.922012 
	C175.959793,198.209595 176.493088,182.358948 176.308502,166.568573 
	C176.230789,159.920792 176.295532,153.271332 176.295532,145.884094 
	C171.245789,145.884094 166.331238,145.884094 160.513870,145.886887 
	C158.164856,145.789993 156.718674,145.690292 155.012054,145.572647 
	C155.012054,132.254288 155.012054,119.208939 155.012054,106.163597 
	C161.961731,106.163597 168.911407,106.163597 176.232285,106.163597 
	C176.232285,87.362045 176.232285,69.091965 176.232285,50.445740 
	C193.638794,50.445740 210.670547,50.445740 228.089127,50.445740 
	C228.089127,68.784798 228.089127,87.049706 228.089127,105.985748 
	C238.803696,105.985748 249.168686,105.985748 260.035736,105.985748 
	C260.035736,115.109009 260.035736,123.564293 260.084412,132.484787 
z"/>
<path fill="#FF924E" opacity="1.000000" stroke="none" 
	d="
M154.646973,106.035614 
	C155.012054,119.208939 155.012054,132.254288 155.012054,145.572647 
	C156.718674,145.690292 158.164856,145.789993 160.089462,145.976044 
	C159.847916,147.685074 159.127930,149.307724 158.405991,150.934814 
	C132.619370,137.667358 114.174812,146.034454 104.495514,158.892365 
	C94.676109,171.936371 94.679619,191.904419 104.941490,204.487778 
	C117.684418,220.113480 135.609665,222.726898 158.363434,211.930115 
	C161.236221,217.840317 164.113098,223.768036 166.998154,229.691772 
	C169.833832,235.514130 172.677811,241.332458 175.704605,247.534607 
	C173.537903,248.951401 171.765274,250.540833 169.690399,251.402542 
	C139.726685,263.846252 109.773483,266.292786 81.150665,248.358994 
	C55.213905,232.108170 40.534370,208.810974 42.173149,177.217300 
	C43.438412,152.824554 55.272076,133.907791 74.284225,119.312141 
	C98.499931,100.721703 125.529793,97.931389 154.646973,106.035614 
z"/>
<path fill="#020202" opacity="1.000000" stroke="none" 
	d="
M401.758453,226.858246 
	C401.879456,224.679886 401.990814,223.011276 402.069397,220.975433 
	C406.008514,207.176895 414.088531,197.809402 428.176910,194.628998 
	C446.957794,190.389267 465.184326,203.068970 468.415253,222.485458 
	C471.473267,240.863098 457.571564,259.115479 439.175873,260.875580 
	C419.303223,262.777039 402.786285,248.849594 401.810608,229.366135 
	C401.777283,228.700729 401.768860,228.034058 401.758453,226.858246 
z"/>
<path fill="#F9FBFC" opacity="1.000000" stroke="none" 
	d="
M248.987671,211.631775 
	C246.296783,212.745789 243.634216,213.799377 240.882996,214.142761 
	C235.736084,214.785141 232.242996,212.234085 230.477219,207.489990 
	C229.676010,205.337357 228.926422,203.003250 228.910721,200.746201 
	C228.785004,182.658859 228.840439,164.570267 228.840439,145.912750 
	C236.017120,145.912750 243.437958,145.912750 251.302383,145.972595 
	C241.232376,167.364594 240.561844,189.114792 248.987671,211.631775 
z"/>
<path fill="#FCFEFD" opacity="1.000000" stroke="none" 
	d="
M328.000000,159.931976 
	C318.043060,159.931976 308.586151,159.931976 299.146576,159.931976 
	C298.853271,146.250366 309.560333,136.477753 325.189026,135.672333 
	C342.358490,134.787537 354.116882,144.098389 355.450378,159.931992 
	C346.451324,159.931992 337.475677,159.931992 328.000000,159.931976 
z"/>
</svg>